# xmcd
#
# Track frame offsets: 
#        150
#        18255
#        34730
#        58495
#        77775
#        99120
#        121635
#        145800
#        166900
#        186290
#
# Disc length: 2920 seconds
#
# Revision: 0
# Processed by: cddbd v1.5.2PL0 Copyright (c) Steve Scherf et al.
# Submitted via: ExactAudioCopy v0.99pb4
#
DISCID=790b660a
DTITLE=Imagika - Feast For The Hated
DYEAR=2008
DGENRE=Thrash/Power Metal
TTITLE0=Waking A Dead Man
TTITLE1=Your Creator
TTITLE2=Bleed As One... Appease The Gods
TTITLE3=Behind Immoral Eyes
TTITLE4=Feast For The Hated
TTITLE5=Thinning Out The Herd
TTITLE6=The Sick Sense
TTITLE7=New Power Rises
TTITLE8=Held Beneath
TTITLE9=Succubus
EXTD=
EXTT0=
EXTT1=
EXTT2=
EXTT3=
EXTT4=
EXTT5=
EXTT6=
EXTT7=
EXTT8=
EXTT9=
PLAYORDER=
